<svg width="53" height="55" viewBox="0 0 53 55" fill="none" xmlns="http://www.w3.org/2000/svg">
<path d="M23.2 46.3C10.4 46.3 0 35.9 0 23.2C0 10.5 10.4 0 23.2 0C36 0 46.4 10.4 46.4 23.2C46.4 36 36 46.4 23.2 46.4V46.3ZM23.2 4C12.6 4 4 12.6 4 23.2C4 33.8 12.6 42.4 23.2 42.4C33.8 42.4 42.4 33.8 42.4 23.2C42.4 12.6 33.7 4 23.2 4Z" fill="white"/>
<path d="M46.9996 54.9C45.6996 54.9 44.3996 54.4 43.2996 53.4L31.5996 41.9L39.1996 34.4L50.5996 46.1C51.5996 47.1 52.1996 48.6 52.0996 50C52.0996 51.5 51.2996 52.8 50.1996 53.7C49.1996 54.5 48.0996 54.8 46.9996 54.8V54.9ZM37.3996 41.9L46.1996 50.6C46.5996 51 47.2996 51.1 47.7996 50.6C48.1996 50.3 48.1996 49.9 48.1996 49.7C48.1996 49.5 48.1996 49.1 47.8996 48.8L39.2996 40L37.3996 41.8V41.9Z" fill="white"/>
</svg>
